<mxfile host="app.diagrams.net" agent="Mozilla/5.0 (Windows NT 10.0; Win64; x64) AppleWebKit/537.36 (KHTML, like Gecko) Chrome/117.0.0.0 Safari/537.36" version="28.0.7">
  <diagram name="第 1 页" id="Ez7t9mQcFc9YtkzzPeJu">
    <mxGraphModel dx="1665" dy="763" grid="1" gridSize="10" guides="1" tooltips="1" connect="1" arrows="1" fold="1" page="1" pageScale="1" pageWidth="827" pageHeight="1169" math="0" shadow="0">
      <root>
        <mxCell id="0" />
        <mxCell id="1" parent="0" />
        <mxCell id="HJQ0lelnH5oYjS2mhthr-1" value="核心接口" style="rounded=1;whiteSpace=wrap;html=1;fillColor=#FFCCCC;" vertex="1" parent="1">
          <mxGeometry x="222" y="130" width="120" height="60" as="geometry" />
        </mxCell>
        <mxCell id="HJQ0lelnH5oYjS2mhthr-2" value="拉取报文" style="rounded=1;whiteSpace=wrap;html=1;" vertex="1" parent="1">
          <mxGeometry x="222" y="240" width="120" height="60" as="geometry" />
        </mxCell>
        <mxCell id="HJQ0lelnH5oYjS2mhthr-4" value="CK报文" style="shape=document;whiteSpace=wrap;html=1;boundedLbl=1;fillColor=#99FFFF;" vertex="1" parent="1">
          <mxGeometry x="40" y="240" width="100" height="60" as="geometry" />
        </mxCell>
        <mxCell id="HJQ0lelnH5oYjS2mhthr-5" value="whale" style="rounded=1;whiteSpace=wrap;html=1;fillColor=#CCFFCC;" vertex="1" parent="1">
          <mxGeometry x="222" y="350" width="120" height="60" as="geometry" />
        </mxCell>
        <mxCell id="HJQ0lelnH5oYjS2mhthr-6" value="captain" style="rounded=1;whiteSpace=wrap;html=1;" vertex="1" parent="1">
          <mxGeometry x="222" y="20" width="120" height="60" as="geometry" />
        </mxCell>
        <mxCell id="HJQ0lelnH5oYjS2mhthr-7" value="" style="shape=flexArrow;endArrow=classic;html=1;rounded=0;exitX=0.5;exitY=1;exitDx=0;exitDy=0;entryX=0.5;entryY=0;entryDx=0;entryDy=0;" edge="1" parent="1" source="HJQ0lelnH5oYjS2mhthr-6" target="HJQ0lelnH5oYjS2mhthr-1">
          <mxGeometry width="50" height="50" relative="1" as="geometry">
            <mxPoint x="392" y="110" as="sourcePoint" />
            <mxPoint x="442" y="60" as="targetPoint" />
          </mxGeometry>
        </mxCell>
        <mxCell id="HJQ0lelnH5oYjS2mhthr-8" value="release分支" style="text;html=1;align=center;verticalAlign=middle;whiteSpace=wrap;rounded=0;" vertex="1" parent="1">
          <mxGeometry x="300" y="190" width="80" height="30" as="geometry" />
        </mxCell>
        <mxCell id="HJQ0lelnH5oYjS2mhthr-9" value="" style="shape=flexArrow;endArrow=classic;html=1;rounded=0;exitX=1;exitY=0.5;exitDx=0;exitDy=0;entryX=0;entryY=0.5;entryDx=0;entryDy=0;" edge="1" parent="1" source="HJQ0lelnH5oYjS2mhthr-4" target="HJQ0lelnH5oYjS2mhthr-2">
          <mxGeometry width="50" height="50" relative="1" as="geometry">
            <mxPoint x="110" y="380" as="sourcePoint" />
            <mxPoint x="160" y="330" as="targetPoint" />
          </mxGeometry>
        </mxCell>
        <mxCell id="HJQ0lelnH5oYjS2mhthr-10" value="" style="shape=flexArrow;endArrow=classic;html=1;rounded=0;" edge="1" parent="1">
          <mxGeometry width="50" height="50" relative="1" as="geometry">
            <mxPoint x="281.5" y="190" as="sourcePoint" />
            <mxPoint x="282" y="240" as="targetPoint" />
          </mxGeometry>
        </mxCell>
        <mxCell id="HJQ0lelnH5oYjS2mhthr-11" value="" style="shape=flexArrow;endArrow=classic;html=1;rounded=0;" edge="1" parent="1">
          <mxGeometry width="50" height="50" relative="1" as="geometry">
            <mxPoint x="281.5" y="300" as="sourcePoint" />
            <mxPoint x="282" y="350" as="targetPoint" />
          </mxGeometry>
        </mxCell>
        <mxCell id="HJQ0lelnH5oYjS2mhthr-12" value="Rule List" style="swimlane;fontStyle=0;childLayout=stackLayout;horizontal=1;startSize=30;horizontalStack=0;resizeParent=1;resizeParentMax=0;resizeLast=0;collapsible=1;marginBottom=0;whiteSpace=wrap;html=1;fillColor=#E5CCFF;" vertex="1" parent="1">
          <mxGeometry x="30" y="340" width="140" height="90" as="geometry" />
        </mxCell>
        <mxCell id="HJQ0lelnH5oYjS2mhthr-13" value="Rule A" style="text;strokeColor=none;fillColor=none;align=left;verticalAlign=middle;spacingLeft=4;spacingRight=4;overflow=hidden;points=[[0,0.5],[1,0.5]];portConstraint=eastwest;rotatable=0;whiteSpace=wrap;html=1;" vertex="1" parent="HJQ0lelnH5oYjS2mhthr-12">
          <mxGeometry y="30" width="140" height="30" as="geometry" />
        </mxCell>
        <mxCell id="HJQ0lelnH5oYjS2mhthr-14" value="Rule B" style="text;strokeColor=none;fillColor=none;align=left;verticalAlign=middle;spacingLeft=4;spacingRight=4;overflow=hidden;points=[[0,0.5],[1,0.5]];portConstraint=eastwest;rotatable=0;whiteSpace=wrap;html=1;" vertex="1" parent="HJQ0lelnH5oYjS2mhthr-12">
          <mxGeometry y="60" width="140" height="30" as="geometry" />
        </mxCell>
        <mxCell id="HJQ0lelnH5oYjS2mhthr-16" value="" style="shape=flexArrow;endArrow=classic;html=1;rounded=0;" edge="1" parent="1">
          <mxGeometry width="50" height="50" relative="1" as="geometry">
            <mxPoint x="172" y="384.5" as="sourcePoint" />
            <mxPoint x="222" y="385" as="targetPoint" />
          </mxGeometry>
        </mxCell>
        <mxCell id="HJQ0lelnH5oYjS2mhthr-18" value="对比结果" style="shape=card;whiteSpace=wrap;html=1;fillColor=#CCFFCC;" vertex="1" parent="1">
          <mxGeometry x="440" y="320" width="80" height="100" as="geometry" />
        </mxCell>
        <mxCell id="HJQ0lelnH5oYjS2mhthr-19" value="" style="shape=flexArrow;endArrow=classic;html=1;rounded=0;exitX=1;exitY=0.5;exitDx=0;exitDy=0;entryX=0;entryY=0.5;entryDx=0;entryDy=0;" edge="1" parent="1">
          <mxGeometry width="50" height="50" relative="1" as="geometry">
            <mxPoint x="350" y="379.5" as="sourcePoint" />
            <mxPoint x="432" y="379.5" as="targetPoint" />
          </mxGeometry>
        </mxCell>
      </root>
    </mxGraphModel>
  </diagram>
</mxfile>
